# xmcd CD database file
#
# Track frame offsets:
#	150
#	9300
#	24900
#	59250
#	75150
#	91050
#	169650
#	188700
#	202500
#	229500
#	238950
#	254400
#	277200
#	314400
#
# Disc length: 4498 seconds
#
# Revision: 0
# Processed by: cddbd v1.5.2PL0 Copyright (c) Steve Scherf et al.
# Submitted via: CDex 1.51
#
DISCID=a311900e
DTITLE=Andy Sheppard - Made In Normandie
DYEAR=2010
DGENRE=Jazz
TTITLE0=Introduction
TTITLE1=Koine
TTITLE2=Les Mains d'Alice
TTITLE3=Bing
TTITLE4=La Tristesse Du Roi
TTITLE5=Glossolalia
TTITLE6=Dieu Fumeur De Havane
TTITLE7=Je t'Aime, Moi Non Plus
TTITLE8=La Javanaise
TTITLE9=Ad Nutum
TTITLE10=Terribilis
TTITLE11=Saxophone Massive
TTITLE12=Eduardo Goes Shopping
TTITLE13=Chom Ty Me Prychov
EXTD=YEAR: 2010
EXTT0=
EXTT1=
EXTT2=
EXTT3=
EXTT4=
EXTT5=
EXTT6=
EXTT7=
EXTT8=
EXTT9=
EXTT10=
EXTT11=
EXTT12=
EXTT13=
PLAYORDER=
